<?xml version="1.0" encoding="utf-8"?>
<!-- Generator: Adobe Illustrator 22.1.0, SVG Export Plug-In . SVG Version: 6.00 Build 0)  -->
<svg version="1.1" id="Layer_1" xmlns="http://www.w3.org/2000/svg" xmlns:xlink="http://www.w3.org/1999/xlink" x="0px" y="0px"
	 viewBox="0 0 300 300.035" enable-background="new 0 0 300 300.035" xml:space="preserve">
<g id="Bitcoin_Logo_2_">
	<path fill="#F6921A" d="M295.51035,186.30861c-20.03644,80.36641-101.43422,129.27623-181.81006,109.23506
		C33.35734,275.50723-15.55263,194.10472,4.49326,113.74303C24.52041,33.36733,105.91818-15.54736,186.27043,4.48923
		c80.37114,20.03645,129.27623,101.44839,109.23979,181.81938H295.51035z"/>
	<path fill="#FFFFFF" d="M216.14241,128.64627c2.98622-19.96149-12.2123-30.69233-32.99413-37.85094l6.74129-27.04041
		l-16.4595-4.102l-6.56317,26.32779c-4.32704-1.07829-8.77126-2.09549-13.18729-3.10339l6.61011-26.50134l-16.45021-4.102
		l-6.746,27.03097c-3.58168-0.81577-7.09767-1.62209-10.51052-2.47062l0.01874-0.0844l-22.69934-5.66786l-4.37855,17.57999
		c0,0,12.21229,2.79867,11.95434,2.97221c6.66632,1.66429,7.87109,6.0756,7.6695,9.57286l-7.67894,30.80491
		c0.45938,0.11717,1.05482,0.286,1.71107,0.54852c-0.54852-0.13591-1.13452-0.286-1.73927-0.43135l-10.7636,43.15298
		c-0.81577,2.02524-2.88308,5.06297-7.54304,3.90985c0.1641,0.23907-11.96378-2.98622-11.96378-2.98622l-8.17123,18.84114
		l21.41947,5.33966c3.98483,0.9986,7.88997,2.04399,11.73402,3.02843l-6.81168,27.34987l16.44077,4.10199l6.74601-27.05914
		c4.49113,1.21892,8.85094,2.34399,13.11703,3.40355l-6.72253,26.93254l16.4595,4.10199l6.81168-27.29822
		c28.06705,5.31149,49.17249,3.16907,58.0562-22.21649c7.15862-20.43961-0.35623-32.23-15.12355-39.91838
		c10.7543-2.47992,18.85515-9.55412,21.01631-24.16664L216.14241,128.64627z M178.53526,181.38155
		c-5.08644,20.43961-39.50107,9.39001-50.65853,6.6194l9.03851-36.23358c11.15746,2.78465,46.93622,8.29771,41.62003,29.61403
		V181.38155z M183.62642,128.35083c-4.64107,18.59262-33.28484,9.14624-42.57642,6.83043l8.19455-32.86293
		C158.53615,104.63414,188.45963,108.95647,183.62642,128.35083z"/>
</g>
<g>
</g>
<g>
</g>
<g>
</g>
<g>
</g>
<g>
</g>
<g>
</g>
<g>
</g>
<g>
</g>
<g>
</g>
<g>
</g>
<g>
</g>
<g>
</g>
<g>
</g>
<g>
</g>
<g>
</g>
</svg>
