<svg id="Layer_1" data-name="Layer 1" xmlns="http://www.w3.org/2000/svg" xmlns:xlink="http://www.w3.org/1999/xlink" viewBox="0 0 520.08839 519.6504">
  <defs>
    <style>
      .cls-1 {
        fill: #3d3d3c;
        stroke: #3d3d3c;
        stroke-width: 18px;
      }

      .cls-1, .cls-5 {
        stroke-miterlimit: 10;
      }

      .cls-2 {
        fill: url(#radial-gradient);
      }

      .cls-3 {
        fill: #fff;
      }

      .cls-4 {
        fill: #b6b8ba;
      }

      .cls-5 {
        fill: #3a3b3d;
        stroke: #3e3e3d;
        stroke-width: 14px;
      }
    </style>
    <radialGradient id="radial-gradient" cx="3559.1464" cy="17427.28458" r="1886.67014" gradientTransform="matrix(0.1208, 0, 0, -0.1207, -169.90044, 2363.29845)" gradientUnits="userSpaceOnUse">
      <stop offset="0" stop-color="#fff"/>
      <stop offset="0.80356" stop-color="#fff"/>
      <stop offset="1" stop-color="#f3f3f3"/>
    </radialGradient>
  </defs>
  <title>litecoinlogo4</title>
  <g id="g36051-8-2-4-0-2-1-7-6">
    <path id="path15210-7-3-1-7-6-6-0-4-3-2-84-3-1" class="cls-1" d="M511.08839,259.8257c0,138.5259-112.3965,250.8247-251.0449,250.8247C121.396,510.6504,9,398.3516,9,259.8257,9,121.2984,121.396,9,260.04349,9,398.69189,9,511.08839,121.2984,511.08839,259.8257Z"/>
    <path id="path15210-6-2-2-1-8-3-9-4-2-9-1-6-8-6" class="cls-2" d="M487.95949,259.8257c0,125.7632-102.042,227.7153-227.916,227.7153C134.1704,487.541,32.1294,385.5889,32.1294,259.8257c0-125.7642,102.041-227.7163,227.91409-227.7163C385.91749,32.1094,487.95949,134.0615,487.95949,259.8257Z"/>
    <path id="path15210-6-0-13-4-3-5-8-6-9-5-3-2-66-9-7" class="cls-3" d="M440.27589,304.7945,152.9761,411.2285a185.07979,185.07979,0,0,0,51.4961,25.5049l213.32619-79.0312a184.44465,184.44465,0,0,0,22.4775-52.9077Z"/>
    <path id="path15210-6-0-13-5-6-6-0-4-8-3-9-2-28-16-1" class="cls-3" d="M440.38429,215.5913,94.3413,343.7871a185.82885,185.82885,0,0,0,23.7432,35.7842L445.7242,258.1958a185.68675,185.68675,0,0,0-5.33991-42.6045Z"/>
    <path id="path15210-6-0-13-3-3-9-3-6-5-2-3-8-8-2-2" class="cls-3" d="M402.1822,140.5855,74.3662,262.0269a185.65381,185.65381,0,0,0,5.4004,42.5815L425.86769,176.3926a185.75113,185.75113,0,0,0-23.6846-35.8071Z"/>
    <path id="path15210-6-0-13-81-1-0-6-3-8-3-6-8-5-2-5" class="cls-3" d="M316.48679,83.1709,101.916,162.6616A184.35428,184.35428,0,0,0,79.7329,215.461l287.96-106.6783A185.07346,185.07346,0,0,0,316.48679,83.1709Z"/>
    <g id="g19015-5-0-9-2-0-4-5-8-2-1-2">
      <path id="path15210-6-0-13-34-1-4-1-0-0-5-7-7-3-4" class="cls-4" d="M417.79639,357.7071l-213.3198,79.0263a186.05746,186.05746,0,0,0,213.3198-79.0263Z"/>
      <path id="path15210-6-0-13-8-0-3-2-0-9-2-4-4-6-8-9" class="cls-4" d="M445.7242,258.1958,118.0869,379.5733a186.65263,186.65263,0,0,0,34.5723,31.7715L440.274,304.7945a185.73543,185.73543,0,0,0,5.4589-44.8243Q445.73289,259.0825,445.7242,258.1958Z"/>
      <path id="path15210-6-0-13-1-3-5-0-5-7-3-05-0-9-5-2" class="cls-4" d="M425.86769,176.3926,79.7661,304.6084a184.172,184.172,0,0,0,14.5752,39.1787l346.043-128.1958A184.14945,184.14945,0,0,0,425.86769,176.3926Z"/>
      <path id="path15210-6-0-13-2-1-5-4-8-7-7-0-0-2-6-7" class="cls-4" d="M367.69289,108.7827,79.7329,215.461a185.83318,185.83318,0,0,0-5.3764,44.5092c0,.6871.0019,1.3741.0097,2.0596L402.18509,140.5855A186.7016,186.7016,0,0,0,367.69289,108.7827Z"/>
      <path id="path15210-6-0-13-6-7-8-4-7-4-2-65-5-1-6-0" class="cls-4" d="M260.04349,74.4434A185.60432,185.60432,0,0,0,101.916,162.6641L316.49169,83.1729A185.734,185.734,0,0,0,260.04349,74.4434Z"/>
    </g>
    <path id="path19268-0-9-1-3-0-4-0-5-9-6-8-0" class="cls-5" d="M217.22809,107.9532q-18.63134,70.52625-37.3033,141.0449-15.4716,5.6565-30.93839,11.3252-7.44,27.87075-14.8775,55.7436,15.5691-5.844,31.13969-11.6855-10.17119,38.633-20.34179,77.2641H375.66559q8.94135-33.76605,17.875-67.5341H261.96049q6.668-25.3185,13.334-50.6402,17.86965-6.63495,35.7392-13.27,7.3419-27.81375,14.6387-55.6401-17.83305,6.75285-35.666,13.5044,13.1484-50.10435,26.2959-100.2105-49.5264,0-99.0493-.0019l-.0162.0639-.0092.0357Z"/>
    <path id="path19268-0-7-6-0-7-7-1-9-0-9-4" class="cls-3" d="M224.41069,117.3057l-36.6743,138.7964-30.93949,11.436-8.8374,33.2178,31.05079-11.646L157.1372,372.2246H368.44579l12.8633-48.6914H249.73l17.7363-67.1479,35.75691-13.249,8.74509-33.2627-35.7744,13.5039,27.8799-106.1001Z"/>
    <path id="path19268-0-7-1-1-7-9-6-9-3-6-5-0" class="cls-3" d="M304.07179,116.1016l-79.6621.0293h-.9048l-.2324.8745-36.5166,138.2065L156.3877,266.4361l-.5708.2114-.1577.5893-8.8364,33.2159-.5874,2.2041,2.1372-.7998L177.292,291.0078l-21.29249,80.917-.3881,1.4737H369.35309l.2285-.875,12.8652-48.6895.3897-1.4766H251.25779l17.19-65.082,35.1836-13.0366.5732-.2114.1553-.5909,8.7451-33.2656.582-2.2016-2.1337.8047-33.6436,12.7001,27.3008-103.8984.38771-1.4741h-1.52641Zm-1.5254,2.3516L275.0542,223.0791l-.57811,2.2036,2.1328-.8061,33.6436-12.6987-8.0108,30.4677L267.0572,255.2818l-.57331.2133-.1562.5894-17.7349,67.1479-.3901,1.4756h131.5791l-12.2422,46.3409H158.6626L180.148,289.4097l.5786-2.1997-2.12839.7998-28.9131,10.8428,8.0908-30.4224L188.146,257.2046l.5733-.2114.1552-.5923L225.31839,118.48l77.228-.0268Z"/>
  </g>
</svg>
