<svg xmlns="http://www.w3.org/2000/svg" viewBox="0 0 237.366 32"><script xmlns=""/><defs><style>.a{fill:#fff;}</style></defs><g transform="translate(-139 -16)"><g transform="translate(139 16)"><path class="a" d="M14.189,31.9a2.4,2.4,0,0,0-4.555-1.225,16.134,16.134,0,0,1-3.147-1.818,2.4,2.4,0,0,0-3.34-3.323,15.942,15.942,0,0,1-1.816-3.15,2.4,2.4,0,0,0,1.282-2.787A2.4,2.4,0,0,0,.1,17.823a15.924,15.924,0,0,1,0-3.636A2.4,2.4,0,0,0,1.331,9.632,16.022,16.022,0,0,1,3.157,6.487,2.4,2.4,0,0,0,6.48,3.147,15.943,15.943,0,0,1,9.63,1.331a2.4,2.4,0,0,0,2.787,1.282A2.4,2.4,0,0,0,14.187.1a15.924,15.924,0,0,1,3.636,0,2.4,2.4,0,0,0,4.555,1.227,16.114,16.114,0,0,1,3.15,1.828,2.4,2.4,0,0,0,3.337,3.323A15.721,15.721,0,0,1,30.681,9.63,2.4,2.4,0,0,0,31.9,14.18a16.046,16.046,0,0,1,0,3.636,2.4,2.4,0,0,0-1.225,4.555,16.244,16.244,0,0,1-1.818,3.15,2.4,2.4,0,0,0-3.323,3.337,15.807,15.807,0,0,1-3.15,1.816A2.4,2.4,0,0,0,17.826,31.9a16.039,16.039,0,0,1-3.637,0ZM4.009,16.008a12,12,0,1,0,12-12A12,12,0,0,0,4.009,16.008Zm8.065,9.076L22.12,18.279,16.081,13.7l4.453-6.489a9.893,9.893,0,0,1-8.46,17.873Zm168.531-.546a7.875,7.875,0,0,1-3.323-3.378,11.287,11.287,0,0,1-1.154-5.281,11.14,11.14,0,0,1,1.154-5.222,8.071,8.071,0,0,1,3.271-3.394,10,10,0,0,1,4.985-1.187,9.384,9.384,0,0,1,6.271,2.063,2.137,2.137,0,0,1,.475.6,1.723,1.723,0,0,1-.176,1.709.987.987,0,0,1-.788.408,1.527,1.527,0,0,1-.543-.095,3.219,3.219,0,0,1-.57-.313,8.648,8.648,0,0,0-2.226-1.187,7.4,7.4,0,0,0-2.321-.332,5.561,5.561,0,0,0-4.465,1.749,7.781,7.781,0,0,0-1.507,5.2q0,7.059,6.171,7.059a13.77,13.77,0,0,0,3.7-.515V17.6h-3.069a1.474,1.474,0,0,1-1.018-.325,1.348,1.348,0,0,1,0-1.847,1.486,1.486,0,0,1,1.018-.316h4.807a1.388,1.388,0,0,1,1.011.368,1.279,1.279,0,0,1,.38.964v5.839a3.473,3.473,0,0,1-.325,1.766,2.374,2.374,0,0,1-1.332.84,13.941,13.941,0,0,1-2.523.6,18.556,18.556,0,0,1-2.77.216A10.679,10.679,0,0,1,180.605,24.538ZM51.351,25.694a13.731,13.731,0,0,1-3.95-.555,8.64,8.64,0,0,1-3.026-1.507,1.647,1.647,0,0,1-.285-2.293,1,1,0,0,1,.8-.423A2.213,2.213,0,0,1,46,21.3a8.124,8.124,0,0,0,2.442,1.22,9.842,9.842,0,0,0,2.822.38,5.571,5.571,0,0,0,3.041-.691,2.265,2.265,0,0,0,1.059-2.022,1.737,1.737,0,0,0-.99-1.588,13.206,13.206,0,0,0-3.3-1.073A19.632,19.632,0,0,1,47.2,16.337,5.494,5.494,0,0,1,44.945,14.6a4.5,4.5,0,0,1-.759-2.687A5.059,5.059,0,0,1,45.134,8.9a6.269,6.269,0,0,1,2.647-2.077A9.4,9.4,0,0,1,51.6,6.076a9.465,9.465,0,0,1,6.323,2.063,2.062,2.062,0,0,1,.513.577,1.685,1.685,0,0,1-.19,1.709,1,1,0,0,1-.8.423,1.485,1.485,0,0,1-.5-.083,3.9,3.9,0,0,1-.61-.3,9.107,9.107,0,0,0-2.16-1.208,7.27,7.27,0,0,0-2.564-.387,5.067,5.067,0,0,0-2.92.745,2.393,2.393,0,0,0-1.07,2.077,1.9,1.9,0,0,0,.95,1.711,11.056,11.056,0,0,0,3.23,1.113,21.84,21.84,0,0,1,3.921,1.206,5.842,5.842,0,0,1,2.3,1.7,4.082,4.082,0,0,1,.8,2.58,4.924,4.924,0,0,1-.938,2.972,6.112,6.112,0,0,1-2.632,2.008,9.911,9.911,0,0,1-3.694.714ZM217.4,25l-9.908-12.894v11.75a1.844,1.844,0,0,1-.434,1.275,1.7,1.7,0,0,1-2.39,0,1.844,1.844,0,0,1-.434-1.275V7.923A1.73,1.73,0,0,1,204.7,6.66a1.617,1.617,0,0,1,1.22-.475,1.519,1.519,0,0,1,1.3.624L217.1,19.649V7.923a1.764,1.764,0,0,1,.449-1.263,1.541,1.541,0,0,1,1.187-.475,1.576,1.576,0,0,1,1.208.475,1.763,1.763,0,0,1,.449,1.263V23.862a1.776,1.776,0,0,1-.475,1.275,1.568,1.568,0,0,1-1.187.489l-.083,0A1.552,1.552,0,0,1,217.4,25Zm-47.81,0-9.908-12.894v11.75a1.844,1.844,0,0,1-.434,1.275,1.7,1.7,0,0,1-2.39,0,1.844,1.844,0,0,1-.434-1.275V7.923A1.73,1.73,0,0,1,156.9,6.66a1.618,1.618,0,0,1,1.222-.475,1.516,1.516,0,0,1,1.3.624L169.3,19.649V7.923a1.764,1.764,0,0,1,.449-1.263,1.543,1.543,0,0,1,1.187-.475,1.571,1.571,0,0,1,1.187.475,1.763,1.763,0,0,1,.449,1.263V23.862a1.785,1.785,0,0,1-.46,1.275,1.576,1.576,0,0,1-1.187.489l-.082,0A1.555,1.555,0,0,1,169.591,25Zm-43.338.19A1.663,1.663,0,0,1,125.845,24V12.82l-4.6,8.73a2.713,2.713,0,0,1-.712.881,1.458,1.458,0,0,1-.9.285,1.5,1.5,0,0,1-.9-.271,2.472,2.472,0,0,1-.712-.895l-4.643-8.607V23.988a1.662,1.662,0,0,1-.42,1.187,1.477,1.477,0,0,1-1.128.449,1.455,1.455,0,0,1-1.113-.435A1.681,1.681,0,0,1,110.315,24V7.933a1.774,1.774,0,0,1,.446-1.263,1.579,1.579,0,0,1,1.208-.475,1.83,1.83,0,0,1,1.662,1.166l6.027,11.474,6-11.484a1.8,1.8,0,0,1,1.6-1.165,1.617,1.617,0,0,1,1.208.475,1.73,1.73,0,0,1,.475,1.263V24a1.614,1.614,0,0,1-.434,1.187,1.541,1.541,0,0,1-1.139.435l-.077,0A1.449,1.449,0,0,1,126.253,25.191Zm72.1.43a1.679,1.679,0,0,1-1.263-.489,1.745,1.745,0,0,1-.475-1.275V7.923a1.633,1.633,0,0,1,1.737-1.737,1.737,1.737,0,0,1,1.289.475,1.709,1.709,0,0,1,.475,1.263V23.857a1.753,1.753,0,0,1-.475,1.275,1.719,1.719,0,0,1-1.2.491ZM67.919,25.592a1.745,1.745,0,0,1-1.291-.475,1.7,1.7,0,0,1-.475-1.26V9.2H61.214q-1.631,0-1.628-1.439t1.628-1.438H74.6q1.628,0,1.628,1.438T74.6,9.2H69.657V23.855A1.64,1.64,0,0,1,68.02,25.6C67.986,25.6,67.953,25.594,67.919,25.592ZM225.7,25.407a1.424,1.424,0,0,1-1.424-1.424,1.408,1.408,0,0,1,.026-.266,3.039,3.039,0,0,1-.026-.392V8.345a3,3,0,0,1,.026-.389,1.408,1.408,0,0,1-.026-.266A1.424,1.424,0,0,1,225.7,6.266h10.237a1.424,1.424,0,1,1,0,2.848h-8.818V22.563h8.818v0a1.424,1.424,0,1,1,0,2.849Zm-83.9,0a1.424,1.424,0,0,1-1.424-1.424,1.372,1.372,0,0,1,.026-.266,2.962,2.962,0,0,1-.026-.392V8.35a2.929,2.929,0,0,1,.026-.389,1.405,1.405,0,0,1-.026-.266A1.424,1.424,0,0,1,141.8,6.271h10.237a1.422,1.422,0,1,1,0,2.844H143.22V22.559h8.823a1.424,1.424,0,0,1,0,2.849Zm-62.063,0a1.424,1.424,0,0,1-1.424-1.424,1.407,1.407,0,0,1,.026-.266,3.036,3.036,0,0,1-.026-.392V8.35a3,3,0,0,1,.026-.389,1.407,1.407,0,0,1-.026-.266,1.424,1.424,0,0,1,1.424-1.424H89.975a1.422,1.422,0,1,1,0,2.844H81.157V22.559H89.98a1.424,1.424,0,0,1,0,2.849ZM95.422,25.4A1.424,1.424,0,0,1,94,23.976a1.38,1.38,0,0,1,.012-.259,3.034,3.034,0,0,1-.026-.392V8.35a3,3,0,0,1,.026-.389,1.405,1.405,0,0,1-.026-.266,1.424,1.424,0,0,1,1.424-1.424h10.235a1.422,1.422,0,0,1,.007,2.844H96.828V22.552h8.837a1.424,1.424,0,0,1,0,2.848ZM7.086,11.8a9.893,9.893,0,0,1,12.94-4.829L9.971,13.781l6.072,4.5-4.46,6.575A9.894,9.894,0,0,1,7.086,11.8Zm222.506,3.982A2.222,2.222,0,1,1,231.814,18,2.222,2.222,0,0,1,229.592,15.777Zm-130.3,0A2.222,2.222,0,1,1,101.515,18,2.222,2.222,0,0,1,99.294,15.777Zm-15.643.352A2.222,2.222,0,1,1,86.2,17.967a2.251,2.251,0,0,1-.359.029A2.222,2.222,0,0,1,83.651,16.13Zm62.066,0a2.222,2.222,0,1,1,2.549,1.837,2.251,2.251,0,0,1-.359.029A2.222,2.222,0,0,1,145.717,16.126Z" transform="translate(0 0)"/></g></g></svg>